<svg xmlns="http://www.w3.org/2000/svg" class="leaflet-zoom-animated" width="384" height="1161" viewBox="4 -139 384 1161" style="transform: translate3d(4px, -139px, 0px);"><g><path stroke-linejoin="round" stroke-linecap="round" fill-rule="evenodd" stroke="#333" stroke-opacity="1" stroke-width="1" fill="transparent" fill-opacity="0.2" class="leaflet-clickable" d="M281 516L281 518L279 517L278 519L277 517L276 520L272 520L272 522L275 525L273 526L273 534L269 545L261 556L258 554L253 558L246 560L246 562L240 562L238 564L239 565L234 567L232 571L223 564L221 565L219 561L216 562L215 563L221 569L222 573L226 574L221 579L217 579L211 583L210 586L205 586L204 593L198 597L198 599L196 600L197 601L193 600L192 604L186 603L187 600L183 600L180 603L178 602L177 592L174 590L174 586L168 586L163 588L160 585L160 581L163 576L161 572L156 573L151 578L152 577L150 573L149 578L143 576L142 578L138 579L137 581L131 584L124 583L121 578L115 574L115 572L106 573L106 579L103 582L100 581L96 584L94 582L92 583L83 581L82 579L79 580L75 577L77 568L74 562L71 561L71 558L75 558L77 560L80 559L76 556L78 554L80 555L91 543L91 539L93 536L95 535L107 517L111 515L109 511L112 509L112 506L106 504L103 501L105 492L106 490L118 488L120 485L121 474L125 471L121 461L121 457L125 455L122 451L117 450L113 447L114 443L120 441L119 439L117 436L110 433L107 430L106 425L100 416L100 413L89 406L90 399L87 396L87 383L89 380L88 366L91 364L95 364L96 353L98 349L106 349L114 340L118 339L123 325L127 325L130 327L135 325L134 317L140 311L139 307L141 304L137 301L136 296L137 292L140 289L140 283L144 279L144 286L150 287L152 291L154 291L170 280L177 279L179 282L180 290L183 291L183 295L186 301L188 302L195 300L196 303L199 305L207 306L209 308L209 312L216 320L217 313L221 316L224 315L232 309L238 307L244 300L249 307L250 311L244 315L253 325L252 336L254 336L257 339L257 344L259 347L258 350L251 352L251 358L256 364L254 366L255 367L251 369L250 368L250 370L244 370L240 377L230 383L225 383L221 385L221 387L218 388L217 391L219 393L217 396L220 400L222 408L225 410L226 415L221 418L224 419L225 424L227 422L229 423L239 421L240 419L247 420L248 424L255 429L257 433L267 432L271 440L271 443L273 442L276 446L279 444L282 444L284 446L293 445L295 448L300 450L303 453L302 459L311 470L316 470L318 473L315 475L315 477L318 477L318 479L320 479L320 481L317 482L318 484L321 484L322 489L313 494L313 498L298 518L295 517L295 513L293 513L292 510L289 510L286 513L286 516L284 516L283 518L281 516z"/></g><g><path stroke-linejoin="round" stroke-linecap="round" fill-rule="evenodd" stroke="#999" stroke-opacity="1" stroke-width="1" stroke-dasharray="1,6" fill="transparent" fill-opacity="0.2" class="leaflet-clickable" d="M159 445L159 456L177 461L181 461L192 450L196 450L206 457L209 454L209 449L211 448L217 450L217 455L221 458L224 466L224 468L222 469L219 467L217 470L217 474L223 486L226 487L229 493L227 497L228 498L225 501L218 504L217 503L214 506L207 502L204 498L191 498L189 496L185 484L183 486L179 485L179 487L177 487L164 483L162 481L161 482L151 472L144 460L144 458L148 457L150 453L146 451L149 443L154 442L156 446L158 446z"/></g><g><path stroke-linejoin="round" stroke-linecap="round" fill-rule="evenodd" stroke="#999" stroke-opacity="1" stroke-width="1" stroke-dasharray="1,6" fill="transparent" fill-opacity="0.2" class="leaflet-clickable" d="M281 516L278 506L276 506L277 504L273 503L271 499L267 498L265 495L260 495L259 487L247 487L239 484L236 485L233 483L226 487L223 486L217 474L218 467L219 466L221 469L227 467L231 469L238 467L242 469L244 472L252 473L262 470L264 473L263 479L268 481L267 478L271 478L272 476L278 477L279 480L281 475L289 475L290 478L294 481L293 483L295 486L297 486L299 482L302 485L302 482L307 481L309 479L308 478L311 476L318 477L320 481L317 482L318 484L321 484L322 489L313 494L313 498L298 518L295 517L295 513L293 513L292 510L289 510L286 513L286 516L284 516L283 518L281 516z"/></g><g><path stroke-linejoin="round" stroke-linecap="round" fill-rule="evenodd" stroke="#999" stroke-opacity="1" stroke-width="1" stroke-dasharray="1,6" fill="transparent" fill-opacity="0.2" class="leaflet-clickable" d="M315 477L308 477L308 481L303 481L302 485L300 482L297 483L297 485L295 486L293 483L294 481L292 479L291 480L287 475L285 477L281 475L279 480L277 476L273 476L267 478L268 480L265 480L262 477L264 475L262 470L252 473L245 472L239 467L231 469L224 467L217 453L218 451L211 449L210 447L210 437L206 433L204 428L206 426L207 418L215 415L223 418L225 424L227 422L229 423L239 421L240 419L247 420L248 424L255 429L257 433L267 432L271 440L271 443L273 442L276 446L279 444L282 444L284 446L293 445L295 448L300 450L303 453L302 459L311 470L316 470L318 473L315 475z"/></g><g><path stroke-linejoin="round" stroke-linecap="round" fill-rule="evenodd" stroke="#999" stroke-opacity="1" stroke-width="1" stroke-dasharray="1,6" fill="transparent" fill-opacity="0.2" class="leaflet-clickable" d="M205 305L199 308L201 309L203 324L201 333L207 335L210 338L212 345L209 347L208 353L198 366L199 374L196 380L191 377L186 379L185 384L178 375L180 371L179 369L182 366L180 364L176 367L167 367L161 365L157 361L156 366L134 378L128 375L122 377L116 371L106 373L99 371L98 367L94 367L97 350L106 349L114 340L118 339L123 325L127 325L130 327L135 325L134 317L140 311L139 307L141 304L137 301L136 296L137 292L140 289L140 283L144 279L144 286L150 287L152 291L154 291L170 280L177 279L179 282L180 290L183 291L183 295L186 301L188 302L195 300L196 303L202 305z"/></g><g><path stroke-linejoin="round" stroke-linecap="round" fill-rule="evenodd" stroke="#999" stroke-opacity="1" stroke-width="1" stroke-dasharray="1,6" fill="transparent" fill-opacity="0.2" class="leaflet-clickable" d="M94 365L94 367L98 367L97 369L99 371L106 373L115 371L122 377L127 375L132 378L146 372L147 370L150 370L155 366L156 361L158 361L161 365L167 367L176 367L179 364L182 365L179 369L180 371L178 375L180 376L183 383L190 386L189 391L180 406L181 407L177 417L173 421L168 418L166 420L168 422L166 437L169 438L170 441L175 442L173 445L168 444L166 446L159 444L158 446L156 446L154 443L149 442L149 446L148 445L148 447L146 448L146 451L150 453L148 457L144 458L144 460L133 459L132 463L130 463L129 461L123 463L121 461L121 457L125 455L122 451L117 450L113 447L114 443L120 441L119 439L117 436L110 433L107 430L106 425L100 416L100 413L89 406L90 399L87 396L87 383L89 380L88 366L91 364L92 365z"/></g><g><path stroke-linejoin="round" stroke-linecap="round" fill-rule="evenodd" stroke="#999" stroke-opacity="1" stroke-width="1" stroke-dasharray="1,6" fill="transparent" fill-opacity="0.2" class="leaflet-clickable" d="M164 483L162 488L158 490L161 493L162 497L159 501L160 504L152 509L152 513L151 511L148 510L146 512L146 521L150 524L148 526L144 526L143 528L145 533L141 533L140 535L136 533L134 535L135 536L132 538L132 536L126 528L127 525L124 521L122 521L117 527L113 522L110 523L110 521L108 521L109 518L106 519L111 515L109 511L112 509L112 506L106 504L103 501L103 499L106 490L117 489L120 485L121 474L125 471L122 466L122 463L129 461L132 463L133 460L136 459L144 460L151 472L163 483z"/></g><g><path stroke-linejoin="round" stroke-linecap="round" fill-rule="evenodd" stroke="#999" stroke-opacity="1" stroke-width="1" stroke-dasharray="1,6" fill="transparent" fill-opacity="0.2" class="leaflet-clickable" d="M161 572L156 573L151 578L152 577L150 573L149 578L143 576L142 578L138 579L137 581L131 584L124 583L121 578L115 574L115 572L108 572L105 575L106 579L103 582L100 581L96 584L94 582L92 583L83 581L82 579L79 580L75 577L77 568L74 562L71 561L71 558L75 558L77 560L80 559L76 556L78 554L80 555L91 543L91 539L93 536L108 518L108 521L110 521L110 523L112 522L116 527L122 521L124 521L128 525L126 528L131 535L129 539L130 543L134 541L136 543L139 542L145 545L152 544L153 542L155 544L157 542L161 544L164 551L163 568L161 571z"/></g><g><path stroke-linejoin="round" stroke-linecap="round" fill-rule="evenodd" stroke="#999" stroke-opacity="1" stroke-width="1" stroke-dasharray="1,6" fill="transparent" fill-opacity="0.2" class="leaflet-clickable" d="M198 371L199 364L204 360L205 356L208 353L209 347L212 345L208 335L201 333L203 324L201 309L199 308L205 305L207 306L209 308L209 312L216 320L217 313L221 316L224 315L232 309L238 307L244 300L250 309L250 311L244 315L253 325L252 336L254 336L257 339L257 344L259 347L258 350L251 352L251 358L256 364L254 366L255 367L251 369L250 368L250 370L244 370L240 377L230 383L225 383L221 385L218 379L214 377L213 378L210 375L199 371z"/></g><g><path stroke-linejoin="round" stroke-linecap="round" fill-rule="evenodd" stroke="#999" stroke-opacity="1" stroke-width="1" stroke-dasharray="1,6" fill="transparent" fill-opacity="0.2" class="leaflet-clickable" d="M198 371L202 373L204 372L211 376L212 378L214 377L219 380L221 387L218 388L217 391L219 393L217 396L220 400L222 408L225 410L226 415L221 418L215 415L207 418L206 420L207 422L204 428L206 433L210 437L209 443L211 448L208 450L209 454L206 457L198 451L192 450L182 458L182 461L177 461L159 456L159 445L173 445L176 442L170 441L170 439L167 437L166 434L168 422L166 420L168 418L172 421L178 416L181 407L180 406L188 393L190 387L190 385L185 384L186 379L191 377L195 380L199 375L198 373z"/></g><g><path stroke-linejoin="round" stroke-linecap="round" fill-rule="evenodd" stroke="#999" stroke-opacity="1" stroke-width="1" stroke-dasharray="1,6" fill="transparent" fill-opacity="0.2" class="leaflet-clickable" d="M131 535L132 538L135 536L134 535L136 533L138 535L140 535L140 533L145 533L143 528L144 526L148 526L150 524L146 521L146 512L148 510L151 511L152 513L152 509L160 504L159 501L162 498L161 493L158 490L164 486L164 483L177 487L179 487L179 485L183 486L185 484L187 486L189 496L191 498L204 498L207 502L214 506L214 508L208 508L207 511L203 511L205 516L204 521L202 520L199 522L202 525L198 528L194 527L192 531L192 533L195 534L197 539L183 553L171 549L166 549L164 551L162 544L158 542L156 542L155 544L153 542L148 545L137 542L136 543L135 541L130 543L130 536z"/></g><g><path stroke-linejoin="round" stroke-linecap="round" fill-rule="evenodd" stroke="#999" stroke-opacity="1" stroke-width="1" stroke-dasharray="1,6" fill="transparent" fill-opacity="0.2" class="leaflet-clickable" d="M215 563L221 569L222 573L226 574L221 579L217 579L211 583L210 586L205 586L204 593L198 597L198 599L196 600L197 601L193 600L192 604L186 603L187 600L183 600L180 603L178 602L177 592L174 590L174 586L168 586L163 588L160 585L160 581L163 576L161 572L163 568L164 551L166 549L170 549L177 550L182 553L185 552L190 545L197 540L195 534L192 533L192 529L194 528L200 529L199 532L202 536L210 534L210 545L212 545L213 551L208 554L212 557L214 561z"/></g><g><path stroke-linejoin="round" stroke-linecap="round" fill-rule="evenodd" stroke="#999" stroke-opacity="1" stroke-width="1" stroke-dasharray="1,6" fill="transparent" fill-opacity="0.2" class="leaflet-clickable" d="M271 537L269 545L261 556L258 554L253 558L246 560L246 562L240 562L238 564L239 565L234 567L232 571L223 564L221 565L219 561L215 563L211 556L208 555L213 552L212 545L210 545L210 535L207 534L205 536L202 536L199 533L199 528L202 525L199 522L201 522L202 520L204 521L205 516L203 511L208 510L208 514L212 517L212 519L216 519L221 525L228 528L231 532L237 535L242 533L253 534L254 532L260 532L269 538z"/></g><g><path stroke-linejoin="round" stroke-linecap="round" fill-rule="evenodd" stroke="#999" stroke-opacity="1" stroke-width="1" stroke-dasharray="1,6" fill="transparent" fill-opacity="0.2" class="leaflet-clickable" d="M208 510L208 508L214 508L214 506L217 503L218 504L223 502L228 498L227 497L229 493L226 487L233 483L236 485L239 484L246 487L259 487L260 495L265 494L266 498L271 499L273 503L276 504L279 508L281 517L279 517L278 519L277 517L276 520L272 520L272 522L275 525L273 526L273 534L269 538L260 532L255 532L253 534L242 533L237 535L231 532L227 527L219 523L216 519L212 519L212 517L208 514L208 511z"/></g></svg>